<svg version="1.2" xmlns="http://www.w3.org/2000/svg" viewBox="0 0 1080 1080" width="1080" height="1080">
	<title>New Project</title>
	<style>
		.s0 { fill: #04031c } 
		.s1 { fill: #02001d } 
	</style>
	<path id="M" class="s0" aria-label="M"  d="m337.4 778h149.8l44.1-274.9h14.8v274.9h174.2v-71.2l-58.1-501.5h-200.4l-43.4 225.8h-12.2l-43.4-225.8h-199.6l-58.9 501.5v71.2h175.1v-274.9h13.9z"/>
	<path id="Q" class="s1" aria-label="Q"  d="m811.3 342.5v274h-68.4l0.1-274zm102.8 411.4c40.8 0 69.1-28.2 69.1-68.3l0.1-413c0-40-28.2-68.3-69.1-68.3l-274-0.1c-40.8 0-69.1 28.3-69.1 68.3l-0.1 413c0 40 28.2 68.3 69 68.3l80.9 0.1 25.9 121.7h130.3v-68.3l-34.5-53.4z"/>
</svg>